<?xml version="1.0" standalone="no"?><!DOCTYPE svg PUBLIC "-//W3C//DTD SVG 1.1//EN" "http://www.w3.org/Graphics/SVG/1.1/DTD/svg11.dtd"><svg t="1564385861422" class="icon" viewBox="0 0 1024 1024" version="1.1" xmlns="http://www.w3.org/2000/svg" p-id="844" xmlns:xlink="http://www.w3.org/1999/xlink" width="200" height="200"><defs><style type="text/css"></style></defs><path d="M922.11 903.29c-5.52 0-11.03-1.22-16.16-3.69L691.49 796.5c-18.57-8.92-26.38-31.22-17.46-49.77 8.92-18.55 31.17-26.33 49.77-17.46l161.01 77.39V159.44l-694.62 313.3 139.88 67.25c18.57 8.92 26.38 31.22 17.46 49.77-8.92 18.55-31.17 26.33-49.77 17.46L85.71 505.26c-13.09-6.27-21.31-19.56-21.12-34.08 0.16-14.49 8.74-27.58 21.96-33.53L906.79 67.72a37.42 37.42 0 0 1 35.56 2.68 37.27 37.27 0 0 1 17.07 31.32v764.27c0 12.83-6.61 24.74-17.46 31.58a37.311 37.311 0 0 1-19.85 5.72z"  p-id="845"></path><path d="M490.58 959.56c-20.6 0-37.31-16.7-37.31-37.31V693.89c0-7.86 2.5-15.5 7.08-21.85l410.1-567.1c12.12-16.68 35.38-20.4 52.08-8.38 16.7 12.07 20.45 35.38 8.38 52.08L527.88 705.96v216.29c0 20.61-16.7 37.31-37.3 37.31z"  p-id="846"></path></svg>